<svg width="301" height="101" viewBox="0 0 301 101" fill="none" xmlns="http://www.w3.org/2000/svg">
<path d="M80.1151 76.7246L90.1251 30.8346H100.525L110.405 76.7246H100.72L99.2901 68.9896H91.2951L89.8001 76.7246H80.1151ZM92.9201 60.6046H97.6651L95.3901 45.4596L92.9201 60.6046ZM114.47 76.7246V30.8346H127.21C134.815 30.8346 140.145 36.0346 140.145 45.4596V51.5046C140.145 57.1596 138.26 61.1896 135.14 63.5296L140.015 76.7246H129.485L126.3 65.9346H124.22V76.7246H114.47ZM124.22 56.6396H125.975C128.185 56.6396 130.46 56.1196 130.46 51.3746V45.5246C130.46 40.8446 128.445 40.2596 125.975 40.2596H124.22V56.6396ZM150.24 76.7246V40.3246H143.61V30.8346H166.685V40.3246H160.055V76.7246H150.24ZM171.599 76.7246V30.8346H181.284V76.7246H171.599ZM199.464 77.3746C191.794 77.3746 186.269 71.9796 186.269 64.0496H195.954C195.954 67.2346 197.969 67.8846 199.529 67.8846C201.024 67.8846 202.714 67.1046 202.714 64.8296C202.714 57.6796 186.724 54.9496 186.724 42.3396C186.724 34.9946 191.794 30.1846 199.464 30.1846C206.809 30.1846 212.139 35.5146 212.139 43.1196H202.584C202.584 40.1296 200.764 39.4146 199.334 39.4146C197.839 39.4146 196.344 40.3246 196.344 42.2746C196.344 49.0346 212.594 51.6996 212.594 64.6996C212.594 72.4346 207.459 77.3746 199.464 77.3746ZM221.715 76.7246V40.3246H215.085V30.8346H238.16V40.3246H231.53V76.7246H221.715ZM243.074 76.7246V30.8346H255.814C263.419 30.8346 268.749 36.0346 268.749 45.4596V51.5046C268.749 57.1596 266.864 61.1896 263.744 63.5296L268.619 76.7246H258.089L254.904 65.9346H252.824V76.7246H243.074ZM252.824 56.6396H254.579C256.789 56.6396 259.064 56.1196 259.064 51.3746V45.5246C259.064 40.8446 257.049 40.2596 254.579 40.2596H252.824V56.6396ZM280.547 76.7246V60.7346L270.862 30.8346H280.872L285.422 47.5396L290.102 30.8346H300.047L290.297 60.7346V76.7246H280.547Z" fill="white"/>
</svg>
