<svg width="300" height="101" viewBox="0 0 300 101" fill="none" xmlns="http://www.w3.org/2000/svg">
<path d="M7.8 76.7246V40.3246H1.17V30.8346H24.245V40.3246H17.615V76.7246H7.8ZM29.1591 76.7246V30.8346H50.8691V40.3246H38.8441V49.4246H48.0091V57.9396H38.8441V67.3646H50.8691V76.7246H29.1591ZM68.1571 77.3746C60.4871 77.3746 55.2221 71.8496 55.2221 63.9196V43.6396C55.2221 35.7096 60.4871 30.1846 68.1571 30.1846C75.7621 30.1846 81.0921 35.7096 81.0921 43.6396V46.1096H71.3421V43.3146C71.3421 39.9996 69.5221 39.6096 68.1571 39.6096C66.7271 39.6096 64.9071 39.9996 64.9071 43.3146V64.2446C64.9071 67.6246 66.6621 68.0146 68.1571 68.0146C69.6521 68.0146 71.3421 67.6246 71.3421 64.2446V60.7346H81.0921V63.9196C81.0921 71.8496 75.7621 77.3746 68.1571 77.3746ZM86.288 76.7246V30.8346H96.038V49.4246H102.083V30.8346H111.768V76.7246H102.083V57.9396H96.038V76.7246H86.288ZM119.169 76.7246V30.8346H128.399L135.419 54.3646V30.8346H145.169V76.7246H135.939L128.919 53.6496V76.7246H119.169ZM164.388 77.3096C156.718 77.3096 151.453 71.8496 151.453 63.9196V43.7046C151.453 35.7746 156.718 30.2496 164.388 30.2496C171.928 30.2496 177.323 35.7746 177.323 43.7046V63.9196C177.323 71.8496 171.928 77.3096 164.388 77.3096ZM161.138 64.2446C161.138 67.5596 162.958 67.9496 164.388 67.9496C165.493 67.9496 167.573 67.6246 167.573 64.2446V43.3796C167.573 39.9996 165.883 39.6096 164.388 39.6096C162.893 39.6096 161.138 39.9996 161.138 43.3796V64.2446ZM183.598 76.7246V30.8346H193.348V67.3646H204.008V76.7246H183.598ZM220.501 77.3096C212.831 77.3096 207.566 71.8496 207.566 63.9196V43.7046C207.566 35.7746 212.831 30.2496 220.501 30.2496C228.041 30.2496 233.436 35.7746 233.436 43.7046V63.9196C233.436 71.8496 228.041 77.3096 220.501 77.3096ZM217.251 64.2446C217.251 67.5596 219.071 67.9496 220.501 67.9496C221.606 67.9496 223.686 67.6246 223.686 64.2446V43.3796C223.686 39.9996 221.996 39.6096 220.501 39.6096C219.006 39.6096 217.251 39.9996 217.251 43.3796V64.2446ZM251.476 77.3746C243.871 77.3746 238.606 71.8496 238.606 63.9196V43.7046C238.606 35.7096 243.871 30.1846 251.476 30.1846C258.951 30.1846 264.216 35.5796 264.411 43.3146H254.661C254.661 39.9996 252.971 39.6096 251.476 39.6096C249.981 39.6096 248.291 39.9996 248.291 43.3146V64.2446C248.291 67.5596 250.111 67.9496 251.476 67.9496C252.841 67.9496 254.661 67.5596 254.661 64.2446V61.5796H251.541V53.1296H264.411V63.9196C264.411 71.8496 259.081 77.3746 251.476 77.3746ZM275.978 76.7246V60.7346L266.293 30.8346H276.303L280.853 47.5396L285.533 30.8346H295.478L285.728 60.7346V76.7246H275.978Z" fill="white"/>
</svg>
